<?xml version="1.0" encoding="UTF-8"?>
<svg xmlns="http://www.w3.org/2000/svg" version="1.1" viewBox="0 0 412 411">
  <defs>
    <style>
      .cls-1 {
        fill: #ef4444;
      }
    </style>
  </defs>
  <!-- Generator: Adobe Illustrator 28.7.1, SVG Export Plug-In . SVG Version: 1.2.0 Build 142)  -->
  <g>
    <g id="Ebene_1">
      <path class="cls-1" d="M359.26.26H52.51C23.52.26-.2,23.98-.2,52.97v228.45c0,28.99,23.72,52.71,52.71,52.71h74.64v61.95c0,17.21,12.91,18.93,25.81,9.47,96.17-70.53,95.14-71.42,95.14-71.42h111.16c28.99,0,52.71-23.72,52.71-52.71V52.97c0-28.99-23.72-52.71-52.71-52.71ZM185.66,83.3c0-10.65,8.71-19.36,19.36-19.36s19.36,8.71,19.36,19.36v90.35c0,10.65-8.71,19.36-19.36,19.36s-19.36-8.71-19.36-19.36v-90.35ZM205.29,270.28c-14.21,0-25.73-11.52-25.73-25.73s11.52-25.73,25.73-25.73,25.73,11.52,25.73,25.73-11.52,25.73-25.73,25.73Z"/>
    </g>
  </g>
</svg>