<?xml version="1.0" encoding="UTF-8"?>
<svg xmlns="http://www.w3.org/2000/svg" version="1.1" viewBox="0 0 2461 411">
  <!-- Generator: Adobe Illustrator 28.7.1, SVG Export Plug-In . SVG Version: 1.2.0 Build 142)  -->
  <g>
    <g id="Ebene_1">
      <path d="M359.96,0H53.21C24.22,0,.5,23.72.5,52.71v228.45c0,28.99,23.72,52.71,52.71,52.71h74.64v61.95c0,17.21,12.91,18.93,25.81,9.47,96.17-70.53,95.14-71.42,95.14-71.42h111.16c28.99,0,52.71-23.72,52.71-52.71V52.71C412.67,23.72,388.95,0,359.96,0ZM186.36,83.04c0-10.65,8.71-19.36,19.36-19.36s19.36,8.71,19.36,19.36v90.35c0,10.65-8.71,19.36-19.36,19.36s-19.36-8.71-19.36-19.36v-90.35ZM205.99,270.02c-14.21,0-25.73-11.52-25.73-25.73s11.52-25.73,25.73-25.73,25.73,11.52,25.73,25.73-11.52,25.73-25.73,25.73Z"/>
      <g>
        <path d="M501.01,269.92l78.52-212.99h25.49l78.52,212.99h-32.23l-59.03-171.83-59.03,171.83h-32.23ZM537.19,223.2v-28.42h112.06v28.42h-112.06Z"/>
        <path d="M742.71,56.94v173.73c0,3.61.81,6.45,2.42,8.5s3.88,3.08,6.81,3.08h14.06v28.42h-17.58c-11.23,0-19.97-3.52-26.22-10.55-6.25-7.03-9.38-16.94-9.38-29.74V56.94h29.88Z"/>
        <path d="M846.86,272.12c-18.65,0-32.64-3.86-41.97-11.57-9.33-7.71-13.99-19.53-13.99-35.45s4.27-26.44,12.82-33.91c8.54-7.47,21.36-11.21,38.45-11.21h43.21l2.05,24.02h-45.12c-7.72,0-13.53,1.74-17.43,5.2-3.91,3.47-5.86,8.77-5.86,15.89,0,7.72,2.59,13.43,7.76,17.14,5.17,3.71,12.94,5.57,23.29,5.57,11.33,0,19.82-1.22,25.49-3.66,5.66-2.44,8.5-6.25,8.5-11.43l3.08,21.39c-2.64,4.1-5.91,7.47-9.81,10.11-3.91,2.64-8.38,4.61-13.4,5.93-5.03,1.32-10.72,1.98-17.07,1.98ZM884.06,269.92v-96.39c0-9.96-2.66-17.7-7.98-23.22-5.32-5.52-12.87-8.28-22.63-8.28-5.96,0-11.84.9-17.65,2.71-5.81,1.81-11.01,4.42-15.6,7.84l-21.83-14.94c5.76-6.93,13.35-12.33,22.78-16.19,9.42-3.86,19.9-5.79,31.42-5.79,19.04,0,33.79,4.93,44.24,14.79,10.45,9.87,15.67,23.78,15.67,41.75v97.71h-28.42Z"/>
        <path d="M957.89,269.92V117.87h29.88v152.05h-29.88ZM1041.54,153.91c-2.64-3.22-5.96-5.66-9.96-7.32-4.01-1.66-8.64-2.49-13.92-2.49-9.47,0-16.82,2.61-22.05,7.84s-7.84,12.48-7.84,21.75l-3.08-29.3c4.59-8.98,10.62-16.01,18.09-21.09,7.47-5.08,15.7-7.62,24.68-7.62,6.93,0,13.21,1,18.82,3,5.61,2,10.52,4.96,14.72,8.86l-19.48,26.37Z"/>
        <path d="M1085.92,269.92V117.87h29.88v152.05h-29.88ZM1176.74,269.92v-92.14c0-10.74-2.64-19.04-7.91-24.9s-12.74-8.79-22.41-8.79-17.31,2.59-22.63,7.76c-5.32,5.18-7.98,12.45-7.98,21.83l-3.08-29.3c4.69-9.18,10.81-16.26,18.38-21.24,7.57-4.98,15.94-7.47,25.12-7.47,16.01,0,28.42,5.4,37.21,16.19,8.79,10.79,13.18,26.05,13.18,45.78v92.29h-29.88ZM1267.56,269.92v-92.14c0-10.74-2.76-19.04-8.28-24.9-5.52-5.86-13.36-8.79-23.51-8.79-9.28,0-16.46,2.83-21.53,8.5-5.08,5.67-7.62,13.67-7.62,24.02l-6.01-29.3c4.88-10.16,11.23-17.97,19.04-23.44,7.81-5.47,16.45-8.2,25.93-8.2,16.5,0,29.27,5.4,38.31,16.19,9.03,10.79,13.55,26.05,13.55,45.78v92.29h-29.88Z"/>
        <path d="M1380.79,223.93l43.65-166.99h20.51l43.65,166.99,37.65-166.99h31.05l-52,212.99h-30.47l-39.26-148.83-41.02,148.83h-30.47l-52-212.99h31.05l37.65,166.99Z"/>
        <path d="M1626.45,272.12c-18.65,0-32.64-3.86-41.97-11.57-9.33-7.71-13.99-19.53-13.99-35.45s4.27-26.44,12.82-33.91c8.54-7.47,21.36-11.21,38.45-11.21h43.21l2.05,24.02h-45.12c-7.72,0-13.53,1.74-17.43,5.2-3.91,3.47-5.86,8.77-5.86,15.89,0,7.72,2.59,13.43,7.76,17.14,5.17,3.71,12.94,5.57,23.29,5.57,11.33,0,19.82-1.22,25.49-3.66,5.66-2.44,8.5-6.25,8.5-11.43l3.08,21.39c-2.64,4.1-5.91,7.47-9.81,10.11-3.91,2.64-8.38,4.61-13.4,5.93-5.03,1.32-10.72,1.98-17.07,1.98ZM1663.65,269.92v-96.39c0-9.96-2.66-17.7-7.98-23.22-5.32-5.52-12.87-8.28-22.63-8.28-5.96,0-11.84.9-17.65,2.71-5.81,1.81-11.01,4.42-15.6,7.84l-21.83-14.94c5.76-6.93,13.35-12.33,22.78-16.19,9.42-3.86,19.9-5.79,31.42-5.79,19.04,0,33.79,4.93,44.24,14.79,10.45,9.87,15.67,23.78,15.67,41.75v97.71h-28.42Z"/>
        <path d="M1725.76,144.83v-26.95h68.55v26.95h-68.55ZM1777.03,270.66c-12.5,0-21.56-3.46-27.17-10.4-5.62-6.93-8.42-16.89-8.42-29.88V73.63h29.88v157.03c0,3.61.73,6.45,2.2,8.5s3.61,3.08,6.45,3.08h14.36v28.42h-17.29Z"/>
        <path d="M1896.71,272.12c-20.9,0-37.09-5.76-48.56-17.29-11.48-11.52-17.21-27.78-17.21-48.78v-25.05c0-20.8,5.74-36.89,17.21-48.27,11.47-11.38,27.66-17.07,48.56-17.07,11.91,0,22.65,2.1,32.23,6.3,9.57,4.2,17.19,10.21,22.85,18.02l-21.53,19.34c-4.2-4.88-9.18-8.64-14.94-11.28-5.76-2.64-11.82-3.96-18.16-3.96-11.52,0-20.46,3.22-26.81,9.67-6.35,6.45-9.52,15.53-9.52,27.25v25.05c0,12.01,3.17,21.29,9.52,27.83,6.35,6.54,15.28,9.81,26.81,9.81,6.35,0,12.4-1.41,18.16-4.25,5.76-2.83,10.74-6.83,14.94-12.01l21.53,20.8c-5.67,7.62-13.31,13.5-22.92,17.65-9.62,4.15-20.34,6.23-32.15,6.23Z"/>
        <path d="M1984.75,269.92V56.94h29.88v212.99h-29.88ZM2077.03,269.92v-92.14c0-10.74-2.76-19.04-8.28-24.9-5.52-5.86-13.36-8.79-23.51-8.79s-17.31,2.54-22.63,7.62c-5.32,5.08-7.98,12.26-7.98,21.53l-3.08-29.3c4.69-8.98,10.81-15.94,18.38-20.87,7.57-4.93,15.94-7.4,25.12-7.4,16.5,0,29.27,5.4,38.31,16.19,9.03,10.79,13.55,26.05,13.55,45.78v92.29h-29.88Z"/>
        <path d="M2214.58,272.12c-21.19,0-37.6-5.91-49.22-17.72-11.62-11.81-17.43-28.61-17.43-50.39v-17.14c0-22.65,5.59-40.18,16.77-52.59,11.18-12.4,26.93-18.6,47.24-18.6,19.14,0,33.96,7.03,44.46,21.09,10.5,14.06,15.75,33.79,15.75,59.18v9.96h-102.54v-24.02h74.12c-.88-12.3-4.08-21.92-9.59-28.86-5.52-6.93-12.92-10.4-22.19-10.4-11.23,0-19.97,3.71-26.22,11.13-6.25,7.42-9.38,17.92-9.38,31.49v19.34c0,12.6,3.34,22.27,10.03,29,6.69,6.74,16.09,10.11,28.2,10.11,6.05,0,12.06-1.22,18.02-3.66,5.96-2.44,11.28-5.86,15.97-10.25l19.63,19.63c-7.52,7.23-15.97,12.82-25.34,16.77s-18.8,5.93-28.27,5.93Z"/>
        <path d="M2313.17,269.92V117.87h29.88v152.05h-29.88ZM2396.81,153.91c-2.64-3.22-5.96-5.66-9.96-7.32-4.01-1.66-8.64-2.49-13.92-2.49-9.47,0-16.82,2.61-22.05,7.84s-7.84,12.48-7.84,21.75l-3.08-29.3c4.59-8.98,10.62-16.01,18.09-21.09,7.47-5.08,15.7-7.62,24.68-7.62,6.93,0,13.21,1,18.82,3,5.61,2,10.52,4.96,14.72,8.86l-19.48,26.37Z"/>
      </g>
    </g>
  </g>
</svg>